<svg width="362" height="319" viewBox="0 0 362 319" fill="none" xmlns="http://www.w3.org/2000/svg">
<g id="Group 1">
<g id="Group 2">
<circle id="Ellipse 1" cx="159.5" cy="159.5" r="157" stroke="white" stroke-width="5"/>
<path id="Arrow 1" d="M360.768 190.768C361.744 189.791 361.744 188.209 360.768 187.232L344.858 171.322C343.882 170.346 342.299 170.346 341.322 171.322C340.346 172.299 340.346 173.882 341.322 174.858L355.464 189L341.322 203.142C340.346 204.118 340.346 205.701 341.322 206.678C342.299 207.654 343.882 207.654 344.858 206.678L360.768 190.768ZM159 191.5H359V186.5H159V191.5Z" fill="white"/>
</g>
<path id="Mdb" d="M81.5469 115.75L103.859 171.438L126.172 115.75H137.844V184H128.844V157.422L129.688 128.734L107.281 184H100.391L78.0312 128.875L78.9219 157.422V184H69.9219V115.75H81.5469ZM150.266 158.219C150.266 150.438 152.109 144.188 155.797 139.469C159.484 134.719 164.312 132.344 170.281 132.344C176.219 132.344 180.922 134.375 184.391 138.438V112H193.062V184H185.094L184.672 178.562C181.203 182.812 176.375 184.938 170.188 184.938C164.312 184.938 159.516 182.531 155.797 177.719C152.109 172.906 150.266 166.625 150.266 158.875V158.219ZM158.938 159.203C158.938 164.953 160.125 169.453 162.5 172.703C164.875 175.953 168.156 177.578 172.344 177.578C177.844 177.578 181.859 175.109 184.391 170.172V146.875C181.797 142.094 177.812 139.703 172.438 139.703C168.188 139.703 164.875 141.344 162.5 144.625C160.125 147.906 158.938 152.766 158.938 159.203ZM249.5 159.203C249.5 166.953 247.719 173.188 244.156 177.906C240.594 182.594 235.812 184.938 229.812 184.938C223.406 184.938 218.453 182.672 214.953 178.141L214.531 184H206.562V112H215.234V138.859C218.734 134.516 223.562 132.344 229.719 132.344C235.875 132.344 240.703 134.672 244.203 139.328C247.734 143.984 249.5 150.359 249.5 158.453V159.203ZM240.828 158.219C240.828 152.312 239.688 147.75 237.406 144.531C235.125 141.312 231.844 139.703 227.562 139.703C221.844 139.703 217.734 142.359 215.234 147.672V169.609C217.891 174.922 222.031 177.578 227.656 177.578C231.812 177.578 235.047 175.969 237.359 172.75C239.672 169.531 240.828 164.688 240.828 158.219Z" fill="white"/>
</g>
</svg>
